P1
# Il s agit de l avion
6 6
0 0 0 1 0 0
1 0 0 0 1 0
1 1 1 1 1 1
0 0 0 0 1 0
0 0 0 1 0 0
0 0 0 0 0 0